<svg xmlns="http://www.w3.org/2000/svg" viewBox="0 0 600 600" width="600" height="600">
  <rect width="600" height="600" fill="#161616"/>
  <rect x="1" y="1" width="598" height="598" fill="none" stroke="#2A2A2A" stroke-width="2"/>
  <!-- Handlebar close-up -->
  <!-- Stem -->
  <rect x="278" y="200" width="44" height="80" fill="#222" rx="4"/>
  <!-- Bar -->
  <rect x="100" y="272" width="400" height="24" fill="#222" rx="12"/>
  <!-- Grips left -->
  <rect x="86" y="264" width="60" height="38" fill="#1A1A1A" rx="6"/>
  <!-- Grips right -->
  <rect x="454" y="264" width="60" height="38" fill="#1A1A1A" rx="6"/>
  <!-- Brake levers -->
  <path d="M150,268 Q160,310 155,340" fill="none" stroke="#333" stroke-width="12" stroke-linecap="round"/>
  <path d="M450,268 Q440,310 445,340" fill="none" stroke="#333" stroke-width="12" stroke-linecap="round"/>
  <!-- Bell -->
  <circle cx="210" cy="275" r="14" fill="#2A2A2A"/>
  <!-- Cable detail -->
  <path d="M155,290 Q300,380 445,290" fill="none" stroke="#1E1E1E" stroke-width="3"/>
  <!-- Headset -->
  <circle cx="300" cy="200" r="28" fill="none" stroke="#2A2A2A" stroke-width="6"/>
  <!-- Accent -->
  <rect x="86" y="264" width="60" height="4" fill="#E8FF00" opacity="0.4"/>
  <rect x="454" y="264" width="60" height="4" fill="#E8FF00" opacity="0.4"/>
  <text x="300" y="520" font-family="monospace" font-size="11" fill="#2A2A2A" text-anchor="middle" letter-spacing="3">GALLERY 03</text>
</svg>
