<svg xmlns="http://www.w3.org/2000/svg" viewBox="0 0 800 800" width="800" height="800">
  <rect width="800" height="800" fill="#161616"/>
  <rect x="1" y="1" width="798" height="798" fill="none" stroke="#2A2A2A" stroke-width="2"/>
  <!-- Street scene suggestion -->
  <rect x="0" y="560" width="800" height="240" fill="#111"/>
  <rect x="0" y="555" width="800" height="8" fill="#1C1C1C"/>
  <!-- Road markings -->
  <rect x="370" y="570" width="60" height="16" fill="#222"/>
  <rect x="370" y="610" width="60" height="16" fill="#222"/>
  <rect x="370" y="650" width="60" height="16" fill="#222"/>
  <!-- Bike silhouette -->
  <circle cx="310" cy="500" r="90" fill="none" stroke="#2A2A2A" stroke-width="10"/>
  <circle cx="310" cy="500" r="12" fill="#2A2A2A"/>
  <circle cx="490" cy="500" r="90" fill="none" stroke="#2A2A2A" stroke-width="10"/>
  <circle cx="490" cy="500" r="12" fill="#2A2A2A"/>
  <polygon points="310,500 400,330 460,500" fill="none" stroke="#2A2A2A" stroke-width="9" stroke-linejoin="round"/>
  <line x1="400" y1="330" x2="490" y2="500" stroke="#2A2A2A" stroke-width="9"/>
  <line x1="400" y1="330" x2="460" y2="316" stroke="#2A2A2A" stroke-width="8"/>
  <line x1="460" y1="316" x2="490" y2="500" stroke="#2A2A2A" stroke-width="8"/>
  <!-- Accent dot -->
  <circle cx="400" cy="500" r="22" fill="none" stroke="#E8FF00" stroke-width="3" opacity="0.4"/>
  <!-- Label -->
  <text x="400" y="760" font-family="monospace" font-size="11" fill="#2A2A2A" text-anchor="middle" letter-spacing="3">GALLERY 01</text>
</svg>
