<svg xmlns="http://www.w3.org/2000/svg" viewBox="0 0 600 600" width="600" height="600">
  <rect width="600" height="600" fill="#161616"/>
  <rect x="1" y="1" width="598" height="598" fill="none" stroke="#2A2A2A" stroke-width="2"/>
  <!-- Close-up wheel detail -->
  <circle cx="300" cy="300" r="240" fill="none" stroke="#222" stroke-width="18"/>
  <circle cx="300" cy="300" r="200" fill="none" stroke="#111" stroke-width="6"/>
  <circle cx="300" cy="300" r="20" fill="#2A2A2A"/>
  <line x1="300" y1="60" x2="300" y2="540" stroke="#1E1E1E" stroke-width="3"/>
  <line x1="60" y1="300" x2="540" y2="300" stroke="#1E1E1E" stroke-width="3"/>
  <line x1="130" y1="130" x2="470" y2="470" stroke="#1E1E1E" stroke-width="3"/>
  <line x1="470" y1="130" x2="130" y2="470" stroke="#1E1E1E" stroke-width="3"/>
  <line x1="180" y1="66" x2="420" y2="534" stroke="#1E1E1E" stroke-width="2"/>
  <line x1="420" y1="66" x2="180" y2="534" stroke="#1E1E1E" stroke-width="2"/>
  <line x1="66" y1="180" x2="534" y2="420" stroke="#1E1E1E" stroke-width="2"/>
  <line x1="534" y1="180" x2="66" y2="420" stroke="#1E1E1E" stroke-width="2"/>
  <!-- Valve -->
  <rect x="292" y="55" width="16" height="28" fill="#333"/>
  <!-- Accent arc -->
  <path d="M 60 300 A 240 240 0 0 1 300 60" fill="none" stroke="#E8FF00" stroke-width="4" opacity="0.3"/>
  <text x="300" y="580" font-family="monospace" font-size="11" fill="#2A2A2A" text-anchor="middle" letter-spacing="3">GALLERY 02</text>
</svg>
