<svg xmlns="http://www.w3.org/2000/svg" viewBox="0 0 800 600" width="800" height="600">
  <rect width="800" height="600" fill="#111111"/>
  <rect x="1" y="1" width="798" height="598" fill="none" stroke="#2A2A2A" stroke-width="2"/>

  <!-- Wheel back — deep V rims -->
  <circle cx="240" cy="390" r="140" fill="none" stroke="#2A2A2A" stroke-width="22"/>
  <circle cx="240" cy="390" r="118" fill="none" stroke="#111" stroke-width="6"/>
  <circle cx="240" cy="390" r="14" fill="#2A2A2A"/>
  <line x1="240" y1="276" x2="240" y2="504" stroke="#1E1E1E" stroke-width="3"/>
  <line x1="126" y1="390" x2="354" y2="390" stroke="#1E1E1E" stroke-width="3"/>
  <line x1="159" y1="309" x2="321" y2="471" stroke="#1E1E1E" stroke-width="3"/>
  <line x1="321" y1="309" x2="159" y2="471" stroke="#1E1E1E" stroke-width="3"/>

  <!-- Wheel front — deep V -->
  <circle cx="560" cy="390" r="140" fill="none" stroke="#2A2A2A" stroke-width="22"/>
  <circle cx="560" cy="390" r="118" fill="none" stroke="#111" stroke-width="6"/>
  <circle cx="560" cy="390" r="14" fill="#2A2A2A"/>
  <line x1="560" y1="276" x2="560" y2="504" stroke="#1E1E1E" stroke-width="3"/>
  <line x1="446" y1="390" x2="674" y2="390" stroke="#1E1E1E" stroke-width="3"/>
  <line x1="479" y1="309" x2="641" y2="471" stroke="#1E1E1E" stroke-width="3"/>
  <line x1="641" y1="309" x2="479" y2="471" stroke="#1E1E1E" stroke-width="3"/>

  <!-- Frame — track geometry -->
  <polygon points="240,390 375,185 495,390" fill="none" stroke="#2A2A2A" stroke-width="11" stroke-linejoin="round"/>
  <line x1="375" y1="185" x2="560" y2="390" stroke="#2A2A2A" stroke-width="11"/>
  <line x1="375" y1="185" x2="505" y2="168" stroke="#2A2A2A" stroke-width="9"/>
  <line x1="505" y1="168" x2="560" y2="390" stroke="#2A2A2A" stroke-width="9"/>
  <!-- Drop bars -->
  <line x1="505" y1="168" x2="520" y2="135" stroke="#333" stroke-width="8"/>
  <path d="M500,135 Q520,120 540,135" fill="none" stroke="#333" stroke-width="7"/>
  <line x1="375" y1="185" x2="366" y2="148" stroke="#333" stroke-width="8"/>
  <ellipse cx="353" cy="146" rx="22" ry="6" fill="#333"/>

  <!-- Chainring — yellow accent -->
  <circle cx="375" cy="390" r="30" fill="none" stroke="#E8FF00" stroke-width="4" opacity="0.5"/>
  <circle cx="375" cy="390" r="10" fill="none" stroke="#E8FF00" stroke-width="2" opacity="0.3"/>

  <text x="400" y="555" font-family="monospace" font-size="11" fill="#2A2A2A" text-anchor="middle" letter-spacing="3">TRACK R — PLACEHOLDER</text>
</svg>
