<svg xmlns="http://www.w3.org/2000/svg" viewBox="0 0 800 600" width="800" height="600">
  <rect width="800" height="600" fill="#111111"/>
  <rect x="1" y="1" width="798" height="598" fill="none" stroke="#2A2A2A" stroke-width="2"/>

  <!-- Wheel back -->
  <circle cx="240" cy="390" r="140" fill="none" stroke="#2A2A2A" stroke-width="12"/>
  <circle cx="240" cy="390" r="14" fill="#2A2A2A"/>
  <line x1="240" y1="250" x2="240" y2="530" stroke="#1E1E1E" stroke-width="3"/>
  <line x1="100" y1="390" x2="380" y2="390" stroke="#1E1E1E" stroke-width="3"/>
  <line x1="141" y1="291" x2="339" y2="489" stroke="#1E1E1E" stroke-width="3"/>
  <line x1="339" y1="291" x2="141" y2="489" stroke="#1E1E1E" stroke-width="3"/>

  <!-- Wheel front -->
  <circle cx="560" cy="390" r="140" fill="none" stroke="#2A2A2A" stroke-width="12"/>
  <circle cx="560" cy="390" r="14" fill="#2A2A2A"/>
  <line x1="560" y1="250" x2="560" y2="530" stroke="#1E1E1E" stroke-width="3"/>
  <line x1="420" y1="390" x2="700" y2="390" stroke="#1E1E1E" stroke-width="3"/>
  <line x1="461" y1="291" x2="659" y2="489" stroke="#1E1E1E" stroke-width="3"/>
  <line x1="659" y1="291" x2="461" y2="489" stroke="#1E1E1E" stroke-width="3"/>

  <!-- Frame -->
  <polygon points="240,390 370,195 490,390" fill="none" stroke="#2A2A2A" stroke-width="11" stroke-linejoin="round"/>
  <line x1="370" y1="195" x2="560" y2="390" stroke="#2A2A2A" stroke-width="11"/>
  <line x1="370" y1="195" x2="490" y2="178" stroke="#2A2A2A" stroke-width="9"/>
  <line x1="490" y1="178" x2="560" y2="390" stroke="#2A2A2A" stroke-width="9"/>
  <line x1="490" y1="178" x2="505" y2="148" stroke="#333" stroke-width="8"/>
  <line x1="490" y1="148" x2="520" y2="148" stroke="#333" stroke-width="7"/>
  <line x1="370" y1="195" x2="362" y2="158" stroke="#333" stroke-width="8"/>
  <ellipse cx="350" cy="156" rx="22" ry="6" fill="#333"/>

  <!-- Chainring -->
  <circle cx="370" cy="390" r="28" fill="none" stroke="#E8FF00" stroke-width="3" opacity="0.4"/>

  <!-- Model label -->
  <text x="400" y="555" font-family="monospace" font-size="11" fill="#2A2A2A" text-anchor="middle" letter-spacing="3">STREET 01 — PLACEHOLDER</text>
</svg>
